# xmcd
#
# Track frame offsets: 
#        150
#        32048
#        61022
#        79531
#        96041
#        117993
#        132985
#        149285
#        167204
#        182519
#
# Disc length: 2611 seconds
#
# Revision: 0
# Processed by: cddbd v1.5.2PL0 Copyright (c) Steve Scherf et al.
# Submitted via: ExactAudioCopyFreeDBPlugin 1.0
#
DISCID=7d0a310a
DTITLE=Dr. John - Live at Ultrasonic Studios
DYEAR=1973
DGENRE=R&B
TTITLE0=Loop Garoo
TTITLE1=I Walk On Gilded Splinters
TTITLE2=Danse Kalinda Ba Boom
TTITLE3=Stagger Lee
TTITLE4=Hard Judgement
TTITLE5=Travelin' Mood 
TTITLE6=Life
TTITLE7=Put A Love Letter In Your Heart
TTITLE8=Tipitina
TTITLE9=Mess Around
EXTD=
EXTT0=
EXTT1=
EXTT2=
EXTT3=
EXTT4=
EXTT5=
EXTT6=
EXTT7=
EXTT8=
EXTT9=
PLAYORDER=
